<?xml version="1.0" standalone="no"?><!DOCTYPE svg PUBLIC "-//W3C//DTD SVG 1.1//EN" "http://www.w3.org/Graphics/SVG/1.1/DTD/svg11.dtd"><svg t="1704174031865" class="icon" viewBox="0 0 1024 1024" version="1.1" xmlns="http://www.w3.org/2000/svg" p-id="11143" xmlns:xlink="http://www.w3.org/1999/xlink" width="32" height="32"><path d="M336 252.8V341h-88.2v-88.2H336m12.6-126h-105c-67.3 0-121.8 54.5-121.8 121.8v105c0 62.6 50.7 113.3 113.3 113.3h113.5c62.6 0 113.3-50.7 113.3-113.3V240.2c0.1-62.6-50.7-113.4-113.3-113.4z" fill="#606266" p-id="11144"></path><path d="M776.2 252.8V341H688v-88.2h88.2m12.6-126h-105c-67.3 0-121.8 54.5-121.8 121.8v105c0 62.6 50.7 113.3 113.3 113.3h113.5c62.6 0 113.3-50.7 113.3-113.3V240.2c0.1-62.6-50.7-113.4-113.3-113.4z" fill="#F65509" p-id="11145"></path><path d="M336 683v88.2h-88.2V683H336m12.6-126h-105c-67.3 0-121.8 54.5-121.8 121.8v105c0 62.6 50.7 113.3 113.3 113.3h113.5c62.6 0 113.3-50.7 113.3-113.3V670.4C462 607.8 411.2 557 348.6 557zM776.2 683v88.2H688V683h88.2m12.6-126h-105C616.6 557 562 611.6 562 678.9v105c0 62.6 50.7 113.3 113.3 113.3h113.5c62.6 0 113.3-50.7 113.3-113.3V670.4c0.1-62.6-50.7-113.4-113.3-113.4z" fill="#606266" p-id="11146"></path></svg>