<?xml version="1.0" standalone="no"?><!DOCTYPE svg PUBLIC "-//W3C//DTD SVG 1.1//EN" "http://www.w3.org/Graphics/SVG/1.1/DTD/svg11.dtd"><svg t="1704246788960" class="icon" viewBox="0 0 1024 1024" version="1.1" xmlns="http://www.w3.org/2000/svg" p-id="13112" xmlns:xlink="http://www.w3.org/1999/xlink" width="32" height="32"><path d="M891.223003 379.30619a53.372931 53.372931 0 0 0-6.399632-5.247698L585.00061 149.239419a137.016122 137.016122 0 0 0-146.167595 0L138.946259 373.930499a45.117406 45.117406 0 0 0-9.599448 9.535452 50.749082 50.749082 0 0 0 9.599448 9.663444l299.886756 224.627084a137.016122 137.016122 0 0 0 146.167595 0l299.886757-224.627084a45.181402 45.181402 0 0 0 9.535452-9.599448 30.974219 30.974219 0 0 0-3.519798-4.159761m90.682786-90.874774a130.808479 130.808479 0 0 1-19.902856 207.156088l-299.82276 224.627084a264.752777 264.752777 0 0 1-299.886757 0L62.150674 495.6515a132.536379 132.536379 0 0 1 0-223.987121L361.845442 46.78131a264.944766 264.944766 0 0 1 299.886756 0l299.694768 224.883069a177.077818 177.077818 0 0 1 20.222837 17.087018z" fill="#1693F6" p-id="13113"></path><path d="M512.044805 1023.941123a250.993568 250.993568 0 0 1-149.879382-46.589321L62.278667 752.532729a132.600375 132.600375 0 0 1 0-224.69108l61.948438-46.525325H191.487237v96.69844h18.366944l-70.395952 52.924957a50.557093 50.557093 0 0 0-9.791437 9.407459 47.677259 47.677259 0 0 0 9.791437 9.535452l299.950753 224.819073a137.400099 137.400099 0 0 0 146.167595 0l299.886757-224.819073a44.34945 44.34945 0 0 0 9.72744-9.535452 42.621549 42.621549 0 0 0-3.583793-4.095764 63.100372 63.100372 0 0 0-6.399632-5.311695l-70.395953-52.924957h18.430941V481.636306h67.132139l62.012435 46.525325a192.372939 192.372939 0 0 1 20.094844 17.279006 133.04835 133.04835 0 0 1 41.725601 103.610043 144.567687 144.567687 0 0 1-61.820445 103.802031l-299.886757 224.819073A250.737583 250.737583 0 0 1 512.044805 1023.941123z" fill="#1693F6" p-id="13114"></path></svg>